<svg xmlns="http://www.w3.org/2000/svg" width="24" height="24" viewBox="0 0 24 24" version="1.1"><path d="" stroke="none" fill="#080404" fill-rule="evenodd"/><path d="M 8 4.940 C 8 5.456, 6.313 6.019, 4.250 6.190 C 0.826 6.473, 0.473 6.783, 0.187 9.750 C -0.114 12.871, 0.016 13, 3.461 13 C 6.393 13, 7.228 13.469, 8.025 15.565 C 8.561 16.976, 9 19.451, 9 21.065 C 9 23.333, 9.454 24, 11 24 C 12.313 24, 13 23.333, 13 22.059 C 13 20.991, 13.441 19.846, 13.979 19.513 C 15.393 18.639, 19 20.810, 19 22.535 C 19 24.740, 22.772 24.295, 23.499 22.004 C 23.847 20.906, 23.589 18.319, 22.925 16.254 C 22.261 14.189, 21.570 11.938, 21.390 11.250 C 21.210 10.563, 19.768 10, 18.186 10 C 15.324 10, 12 7.405, 12 5.171 C 12 4.527, 11.100 4, 10 4 C 8.900 4, 8 4.423, 8 4.940 M 9 5.940 C 9 6.456, 7.313 7.019, 5.250 7.190 C 2.238 7.439, 1.437 7.943, 1.180 9.750 C 0.900 11.725, 1.300 12, 4.455 12 C 7.393 12, 8.228 12.468, 9.025 14.565 C 9.561 15.976, 10 18.451, 10 20.065 C 10 21.679, 10.450 23, 11 23 C 11.550 23, 12 22.086, 12 20.969 C 12 19.851, 12.704 18.667, 13.564 18.337 C 15.704 17.516, 20 19.613, 20 21.479 C 20 22.315, 20.402 23, 20.893 23 C 22.499 23, 22.903 20.212, 21.789 16.823 C 21.188 14.995, 20.554 12.938, 20.380 12.250 C 20.205 11.563, 18.768 11, 17.186 11 C 14.324 11, 11 8.405, 11 6.171 C 11 5.527, 10.550 5, 10 5 C 9.450 5, 9 5.423, 9 5.940 M 6.333 8.667 C 6.700 9.033, 7.300 9.033, 7.667 8.667 C 8.033 8.300, 7.733 8, 7 8 C 6.267 8, 5.967 8.300, 6.333 8.667 M 16.333 13.667 C 16.700 14.033, 17.300 14.033, 17.667 13.667 C 18.033 13.300, 17.733 13, 17 13 C 16.267 13, 15.967 13.300, 16.333 13.667 M 14.333 15.667 C 14.700 16.033, 15.300 16.033, 15.667 15.667 C 16.033 15.300, 15.733 15, 15 15 C 14.267 15, 13.967 15.300, 14.333 15.667 M 18.333 15.667 C 18.700 16.033, 19.300 16.033, 19.667 15.667 C 20.033 15.300, 19.733 15, 19 15 C 18.267 15, 17.967 15.300, 18.333 15.667" stroke="none" fill="#040404" fill-rule="evenodd"/></svg>